<svg width="1350" height="768" viewBox="0 0 1350 768" fill="none" xmlns="http://www.w3.org/2000/svg">
<g clip-path="url(#clip0)">
<path d="M223.245 -298.5C287.612 -298.5 332.513 -271.172 370.911 -231.981C390.116 -212.378 407.69 -189.812 425.258 -166.211C429.675 -160.275 434.093 -154.274 438.536 -148.239C451.755 -130.282 465.199 -112.021 479.535 -94.2842C490.722 -80.4445 504.482 -65.302 519.461 -48.8175C524.661 -43.0949 530.008 -37.2106 535.446 -31.163C556.554 -7.68506 579.042 18.2737 599.646 46.8533C640.854 104.014 674.5 171.623 674.5 250.77C674.5 290.33 664.984 321.024 649.477 346.041C633.966 371.064 612.444 390.435 588.391 407.323C570.129 420.145 550.431 431.521 530.808 442.854C524.575 446.453 518.35 450.048 512.181 453.684C486.604 468.757 462.001 484.522 441.928 504.152C425.427 520.289 410.97 536.332 397.276 551.528C395.426 553.581 393.59 555.619 391.764 557.639C376.423 574.618 361.847 590.369 346.137 603.831C314.741 630.734 278.813 648.5 223.245 648.5C80.5374 648.5 -9.1333 567.637 -84.353 454.893C-95.9243 437.55 -113.497 420.059 -133.303 401.401C-137.346 397.593 -141.482 393.737 -145.68 389.822C-162.066 374.542 -179.399 358.378 -195.822 340.79C-237.078 296.61 -272.5 243.535 -272.5 173.238C-272.5 117.069 -239.216 75.7548 -201.995 40.9587C-191.046 30.7235 -179.79 21.0807 -168.943 11.7892C-161.333 5.27008 -153.925 -1.07614 -146.967 -7.33273C-130.13 -22.4716 -115.975 -37.0456 -108.281 -52.0808C-38.3851 -188.656 63.1199 -298.5 223.245 -298.5Z" stroke="white"/>
<path d="M222.105 -274.192C283.161 -274.192 325.754 -248.27 362.179 -211.092C380.398 -192.496 397.07 -171.088 413.737 -148.697C417.928 -143.067 422.119 -137.373 426.334 -131.647C438.875 -114.612 451.63 -97.286 465.232 -80.4587C475.845 -67.3281 488.9 -52.9612 503.112 -37.3217C508.045 -31.8928 513.117 -26.3105 518.276 -20.5734C538.301 1.70032 559.635 26.3271 579.181 53.4398C618.275 107.667 650.192 171.804 650.192 246.884C650.192 284.411 641.165 313.526 626.456 337.256C611.743 360.992 591.328 379.367 568.51 395.388C551.185 407.552 532.499 418.344 513.882 429.096C507.969 432.51 502.063 435.921 496.21 439.37C471.944 453.671 448.6 468.628 429.555 487.254C413.9 502.564 400.184 517.785 387.193 532.201C385.437 534.149 383.695 536.082 381.963 537.999C367.408 554.108 353.58 569.05 338.677 581.82C308.896 607.34 274.816 624.192 222.105 624.192C86.7275 624.192 1.66205 547.485 -69.6982 440.526C-80.678 424.069 -97.3514 407.473 -116.142 389.772C-119.978 386.159 -123.902 382.5 -127.885 378.785C-143.43 364.289 -159.874 348.955 -175.454 332.271C-214.592 290.358 -248.192 240.011 -248.192 173.328C-248.192 120.051 -216.623 80.8619 -181.311 47.8513C-170.924 38.1409 -160.245 28.9936 -149.956 20.179C-142.736 13.9943 -135.708 7.97333 -129.105 2.03668C-113.131 -12.3259 -99.6995 -26.1553 -92.3972 -40.424C-26.0876 -169.992 70.2052 -274.192 222.105 -274.192Z" stroke="white"/>
<path d="M220.964 -249.885C278.711 -249.885 318.994 -225.368 353.447 -190.203C370.68 -172.614 386.45 -152.364 402.216 -131.184C406.18 -125.858 410.144 -120.473 414.131 -115.057C425.994 -98.9419 438.06 -82.5516 450.928 -66.633C460.968 -54.2117 473.318 -40.6208 486.761 -25.8268C491.428 -20.6912 496.226 -15.4106 501.105 -9.98366C520.049 11.0859 540.228 34.3806 558.717 60.0266C595.696 111.32 625.885 171.985 625.885 242.998C625.885 278.493 617.347 306.029 603.436 328.471C589.521 350.92 570.212 368.3 548.629 383.453C532.242 394.959 514.567 405.167 496.956 415.337C491.363 418.567 485.776 421.794 480.239 425.057C457.284 438.584 435.2 452.735 417.182 470.356C402.372 484.839 389.397 499.238 377.108 512.875C375.447 514.718 373.799 516.547 372.161 518.36C358.393 533.597 345.314 547.731 331.217 559.81C303.05 583.946 270.818 599.885 220.964 599.885C92.9175 599.885 12.4573 527.332 -55.0434 426.158C-65.4316 410.588 -81.206 394.887 -98.9808 378.143C-102.609 374.725 -106.322 371.264 -110.09 367.75C-124.794 354.037 -140.348 339.533 -155.085 323.751C-192.106 284.106 -223.885 236.487 -223.885 173.419C-223.885 123.034 -194.029 85.9692 -160.627 54.7441C-150.801 45.5587 -140.702 36.907 -130.969 28.5695C-124.139 22.719 -117.49 17.0232 -111.244 11.4063C-96.1332 -2.18002 -83.4239 -15.2647 -76.5138 -28.767C-13.7902 -151.328 77.2905 -249.885 220.964 -249.885Z" stroke="white"/>
<path d="M219.823 -225.577C274.26 -225.577 312.235 -202.466 344.716 -169.314C360.963 -152.732 375.83 -133.641 390.695 -113.671C394.432 -108.65 398.169 -103.573 401.929 -98.4664C413.114 -83.2716 424.491 -67.8171 436.624 -52.8075C446.091 -41.0951 457.736 -28.2797 470.412 -14.3307C474.812 -9.48885 479.335 -4.51044 483.935 0.605865C501.796 20.4712 520.822 42.4339 538.253 66.6132C573.117 114.973 601.577 172.165 601.577 239.113C601.577 272.574 593.528 298.531 580.415 319.686C567.298 340.847 549.096 357.232 528.748 371.518C513.299 382.366 496.636 391.989 480.032 401.578C474.758 404.624 469.49 407.666 464.268 410.743C442.625 423.498 421.8 436.841 404.809 453.458C390.844 467.115 378.609 480.692 367.022 493.55C365.457 495.287 363.903 497.011 362.359 498.72C349.378 513.087 337.047 526.411 323.758 537.799C297.205 560.552 266.821 575.577 219.823 575.577C99.1076 575.577 23.2527 507.18 -40.3885 411.79C-50.1852 397.107 -65.0605 382.301 -81.8194 366.514C-85.2409 363.291 -88.7413 360.027 -92.2942 356.714C-106.159 343.785 -120.823 330.111 -134.717 315.232C-169.619 277.854 -199.577 232.963 -199.577 173.509C-199.577 126.015 -171.435 91.0763 -139.943 61.6367C-130.679 52.9762 -121.158 44.82 -111.982 36.9596C-105.543 31.4434 -99.2732 26.0728 -93.3819 20.7757C-79.1349 7.96562 -67.1483 -4.3744 -60.6304 -17.1102C-1.49275 -132.664 84.3759 -225.577 219.823 -225.577Z" stroke="white"/>
<path d="M218.682 -201.269C269.81 -201.269 305.476 -179.564 335.984 -148.426C351.245 -132.849 365.21 -114.917 379.174 -96.1575C382.684 -91.4411 386.195 -86.672 389.726 -81.8753C400.234 -67.6012 410.922 -53.0826 422.32 -38.982C431.214 -27.9789 442.154 -15.9396 454.061 -2.83595C458.194 1.71254 462.444 6.38927 466.765 11.1954C483.543 29.8565 501.415 50.4872 517.789 73.1997C550.538 118.626 577.269 172.346 577.269 235.227C577.269 266.655 569.71 291.033 557.395 310.901C545.075 330.775 527.98 346.164 508.867 359.583C494.355 369.772 478.704 378.811 463.107 387.819C458.152 390.68 453.203 393.538 448.297 396.429C427.965 408.411 408.4 420.948 392.435 436.56C379.317 449.389 367.823 462.144 356.939 474.222C355.468 475.854 354.008 477.474 352.557 479.08C340.363 492.576 328.78 505.092 316.298 515.788C291.359 537.158 262.824 551.269 218.682 551.269C105.298 551.269 34.048 487.027 -25.7337 397.422C-34.9388 383.625 -48.915 369.715 -64.658 354.885C-67.8721 351.858 -71.1602 348.792 -74.4976 345.679C-87.5219 333.534 -101.297 320.689 -114.348 306.712C-147.133 271.602 -175.269 229.438 -175.269 173.599C-175.269 128.997 -148.841 96.1833 -119.259 68.5292C-110.556 60.3936 -101.614 52.733 -92.9948 45.3496C-86.9456 40.1677 -81.0559 35.1223 -75.5203 30.1451C-62.1367 18.1113 -50.8727 6.51591 -44.7471 -5.45343C10.8047 -114.001 91.4613 -201.269 218.682 -201.269Z" stroke="white"/>
<path d="M217.542 -176.961C265.36 -176.961 298.717 -156.662 327.252 -127.537C341.527 -112.967 354.59 -96.1929 367.653 -78.644C370.937 -74.2319 374.221 -69.7704 377.525 -65.283C387.355 -51.9299 397.354 -38.3474 408.016 -25.1562C416.337 -14.8621 426.573 -3.59827 437.712 8.6604C441.578 12.9151 445.553 17.2897 449.595 21.7852C465.29 39.2421 482.008 58.5407 497.325 79.7865C527.959 122.28 552.962 172.527 552.962 231.342C552.962 260.736 545.891 283.536 534.374 302.117C522.853 320.703 506.864 335.096 488.986 347.648C475.412 357.179 460.772 365.634 446.181 374.06C441.546 376.737 436.916 379.411 432.326 382.116C413.306 393.325 395 405.054 380.062 419.662C367.789 431.665 357.036 443.597 346.854 454.896C345.478 456.423 344.113 457.938 342.755 459.441C331.348 472.066 320.514 483.773 308.839 493.777C285.514 513.764 258.827 526.962 217.542 526.962C111.488 526.962 44.8434 466.875 -11.0789 383.055C-19.6924 370.145 -32.7695 357.129 -47.4967 343.256C-50.5037 340.424 -53.5798 337.555 -56.702 334.644C-68.8859 323.282 -81.7708 311.267 -93.9793 298.193C-124.647 265.35 -150.962 225.914 -150.962 173.69C-150.962 131.98 -126.247 101.291 -98.5752 75.4221C-90.4339 67.8113 -82.0696 60.6462 -74.0074 53.7397C-68.3485 48.8921 -62.8385 44.172 -57.6588 39.5147C-45.1384 28.2572 -34.5971 17.4065 -28.8637 6.20361C23.1021 -95.3368 98.5466 -176.961 217.542 -176.961Z" stroke="white"/>
<path d="M216.401 -152.654C260.909 -152.654 291.957 -133.76 318.521 -106.648C331.809 -93.085 343.97 -77.4693 356.132 -61.1308C359.189 -57.0233 362.247 -52.8697 365.323 -48.6918C374.475 -36.2595 383.785 -23.6129 393.713 -11.3308C401.46 -1.74602 410.99 8.74179 421.361 20.1549C424.961 24.1164 428.662 28.1893 432.425 32.3747C447.037 48.6274 462.601 66.594 476.861 86.373C505.38 125.933 528.654 172.708 528.654 227.456C528.654 254.818 522.073 276.038 511.353 293.332C500.63 310.631 485.748 324.028 469.105 335.713C456.469 344.586 442.84 352.456 429.256 360.301C424.94 362.794 420.629 365.284 416.355 367.802C398.646 378.239 381.599 389.161 367.689 402.764C356.261 413.94 346.249 425.051 336.769 435.571C335.488 436.992 334.217 438.403 332.953 439.801C322.333 451.556 312.247 462.454 301.379 471.766C279.668 490.37 254.829 502.654 216.401 502.654C117.678 502.654 55.6387 446.722 3.57593 368.687C-4.44601 356.663 -16.624 344.543 -30.3353 331.627C-33.1352 328.99 -35.9995 326.319 -38.9065 323.608C-50.25 313.03 -62.2451 301.844 -73.6107 289.673C-102.161 259.098 -126.654 222.39 -126.654 173.78C-126.654 134.961 -103.653 106.398 -77.8912 82.3146C-70.3114 75.2288 -62.5256 68.5592 -55.0203 62.1298C-49.7516 57.6165 -44.6212 53.2216 -39.7971 48.8841C-28.1401 38.4028 -18.3214 28.2968 -12.9803 17.8604C35.3996 -76.6732 105.632 -152.654 216.401 -152.654Z" stroke="white"/>
<path d="M215.26 -128.346C256.459 -128.346 285.198 -110.859 309.789 -85.7595C322.091 -73.2029 333.35 -58.7456 344.611 -43.6176C347.441 -39.815 350.272 -35.9695 353.12 -32.1015C361.594 -20.5897 370.215 -8.87857 379.409 2.49472C386.583 11.3705 395.408 21.0826 405.011 31.6507C408.344 35.3185 411.771 39.0894 415.255 42.9642C428.785 58.0128 443.195 74.6473 456.396 92.9596C482.801 129.586 504.346 172.888 504.346 223.57C504.346 248.899 498.254 268.541 488.333 284.547C478.407 300.559 464.632 312.96 449.224 323.778C437.525 331.993 424.908 339.279 412.33 346.543C408.334 348.851 404.342 351.156 400.384 353.489C383.986 363.152 368.199 373.267 355.316 385.866C344.733 396.215 335.462 406.504 326.684 416.245C325.498 417.561 324.321 418.867 323.152 420.161C313.317 431.045 303.98 441.134 293.919 449.756C273.823 466.976 250.832 478.346 215.26 478.346C123.868 478.346 66.434 426.569 18.2307 354.319C10.8003 343.182 -0.478638 331.957 -13.174 319.998C-15.7668 317.556 -18.419 315.083 -21.1108 312.573C-31.614 302.778 -42.7194 292.422 -53.2421 281.153C-79.6753 252.846 -102.346 218.866 -102.346 173.87C-102.346 137.943 -81.0594 111.505 -57.2074 89.2072C-50.1891 82.6463 -42.9818 76.4723 -36.0333 70.52C-31.1549 66.3409 -26.404 62.2711 -21.9356 58.2535C-11.1419 48.5484 -2.04586 39.1871 2.90298 29.5172C47.6969 -58.0095 112.717 -128.346 215.26 -128.346Z" stroke="white"/>
<path d="M214.119 -104.039C252.008 -104.039 278.439 -87.9568 301.057 -64.8708C312.373 -53.3208 322.73 -40.0219 333.09 -26.1044C335.694 -22.6063 338.298 -19.0686 340.918 -15.5101C348.714 -4.91912 356.647 5.85607 365.105 16.3202C371.706 24.487 379.827 33.4236 388.662 43.1468C391.728 46.5208 394.88 49.9896 398.085 53.5537C410.532 67.3981 423.788 82.7006 435.932 99.5461C460.222 133.239 480.038 173.069 480.038 219.684C480.038 242.98 474.436 261.043 465.312 275.762C456.185 290.487 443.516 301.892 429.343 311.843C418.582 319.399 406.976 326.102 395.405 332.784C391.728 334.908 388.055 337.029 384.413 339.175C369.327 348.066 354.799 357.373 342.943 368.968C333.206 378.49 324.676 387.956 316.601 396.917C315.509 398.128 314.426 399.33 313.35 400.521C304.302 410.535 295.714 419.815 286.46 427.745C267.977 443.582 246.835 454.038 214.119 454.038C130.058 454.038 77.2294 406.417 32.8855 339.951C26.0467 329.701 15.6669 319.371 3.98734 308.369C1.60156 306.122 -0.838867 303.846 -3.31561 301.536C-12.9783 292.526 -23.1938 283 -32.8735 272.634C-57.1892 246.594 -78.0385 215.342 -78.0385 173.961C-78.0385 140.925 -58.4655 116.612 -36.5235 96.0997C-30.0667 90.0637 -23.4378 84.3853 -17.0462 78.91C-12.5579 75.0652 -8.1866 71.3207 -4.07398 67.6228C5.8564 58.694 14.2298 50.0774 18.7864 41.1739C59.9944 -39.3459 119.803 -104.039 214.119 -104.039Z" stroke="white"/>
<path d="M212.978 -79.7307C247.558 -79.7307 271.679 -65.0547 292.325 -43.9819C302.655 -33.4384 312.11 -21.298 321.569 -8.5909C323.946 -5.39733 326.324 -2.16747 328.716 1.08147C335.834 10.7517 343.078 20.591 350.801 30.1459C356.829 37.6037 364.245 45.7646 372.312 54.6426C375.112 57.7231 377.989 60.8898 380.915 64.1435C392.279 76.7837 404.381 90.7542 415.468 106.133C437.643 136.892 455.731 173.25 455.731 215.799C455.731 237.061 450.617 253.546 442.291 266.977C433.962 280.415 422.4 290.825 409.463 299.908C399.638 306.806 389.044 312.924 378.48 319.026C375.122 320.965 371.768 322.902 368.442 324.862C354.667 332.98 341.399 341.48 330.569 352.071C321.679 360.765 313.889 369.41 306.516 377.592C305.519 378.697 304.531 379.794 303.548 380.882C295.287 390.025 287.447 398.496 279 405.734C262.132 420.189 242.838 429.731 212.978 429.731C136.248 429.731 88.0247 386.264 47.5403 325.584C41.2931 316.22 31.8123 306.785 21.1487 296.74C18.9702 294.688 16.7418 292.61 14.4805 290.502C5.65799 282.274 -3.6679 273.578 -12.5049 264.114C-34.7032 240.342 -53.7308 211.818 -53.7308 174.051C-53.7308 143.907 -35.8717 121.719 -15.8396 102.993C-9.94423 97.4814 -3.89376 92.2985 1.9411 87.3002C6.03909 83.7898 10.0307 80.3704 13.7876 76.9925C22.8547 68.84 30.5054 60.968 34.6698 52.8309C72.2918 -20.682 126.888 -79.7307 212.978 -79.7307Z" stroke="white"/>
<path d="M211.838 -55.4231C243.107 -55.4231 264.92 -42.1529 283.594 -23.0932C292.938 -13.5564 301.491 -2.5743 310.048 8.92231C312.198 11.8113 314.349 14.7333 316.513 17.6727C322.954 26.4221 329.509 35.3256 336.497 43.9714C341.952 50.7201 348.663 58.1053 355.963 66.1381C358.495 68.925 361.098 71.7898 363.744 74.733C374.026 86.169 384.974 98.8075 395.004 112.719C415.064 140.545 431.423 173.431 431.423 211.913C431.423 231.142 426.799 246.048 419.271 258.192C411.739 270.343 401.284 279.757 389.582 287.973C380.695 294.213 371.113 299.747 361.555 305.266C358.517 307.021 355.481 308.774 352.471 310.548C340.008 317.893 327.999 325.586 318.196 335.173C310.151 343.04 303.102 350.863 296.431 358.265C295.53 359.265 294.635 360.258 293.746 361.242C286.272 369.514 279.181 377.177 271.541 383.723C256.286 396.795 238.84 405.423 211.838 405.423C142.438 405.423 98.82 366.112 62.1951 311.216C56.5395 302.739 47.9578 294.199 38.31 285.111C36.3386 283.254 34.3223 281.374 32.2762 279.466C24.2941 272.023 15.8579 264.156 7.86368 255.595C-12.2172 234.09 -29.4231 208.293 -29.4231 174.142C-29.4231 146.889 -13.2778 126.826 4.84433 109.885C10.1782 104.899 15.6502 100.211 20.9283 95.6902C24.636 92.5141 28.248 89.42 31.6492 86.3619C39.8529 78.9856 46.781 71.8583 50.5531 64.4877C84.5892 -2.01835 133.973 -55.4231 211.838 -55.4231Z" stroke="white"/>
<path d="M210.697 -31.1155C238.657 -31.1155 258.161 -19.2511 274.862 -2.20457C283.22 6.32575 290.871 16.1494 298.527 26.4355C300.451 29.0197 302.375 31.6337 304.311 34.2633C310.074 42.0921 315.94 50.0599 322.194 57.7969C327.075 63.8364 333.081 70.4459 339.613 77.6335C341.878 80.1269 344.207 82.6898 346.574 85.3226C355.773 95.5544 365.568 106.861 374.54 119.306C392.485 144.198 407.115 173.611 407.115 208.028C407.115 225.223 402.98 238.551 396.25 249.407C389.517 260.271 380.168 268.689 369.701 276.038C361.751 281.62 353.18 286.569 344.629 291.508C341.91 293.078 339.194 294.647 336.5 296.234C325.348 302.807 314.598 309.693 305.823 318.275C298.624 325.315 292.316 332.315 286.347 338.938C285.54 339.833 284.74 340.722 283.944 341.602C277.257 349.004 270.914 355.857 264.081 361.712C250.441 373.401 234.843 381.115 210.697 381.115C148.628 381.115 109.615 345.959 76.85 296.848C71.7859 289.258 64.1033 281.613 55.4714 273.482C53.7072 271.82 51.9029 270.138 50.072 268.431C42.9302 261.771 35.3837 254.733 28.2323 247.075C10.2689 227.838 -5.11536 204.769 -5.11536 174.232C-5.11536 149.871 9.3161 131.933 25.5283 116.778C30.3007 112.316 35.1943 108.124 39.9155 104.08C43.233 101.238 46.4654 98.4695 49.5108 95.7313C56.8512 89.1312 63.0567 82.7486 66.4365 76.1445C96.8867 16.6453 141.059 -31.1155 210.697 -31.1155Z" stroke="white"/>
<path d="M209.556 -6.80762C234.206 -6.80762 251.402 3.65102 266.13 18.6844C273.502 26.2081 280.251 34.8733 287.006 43.949C288.703 46.2289 290.401 48.5352 292.109 50.8555C297.194 57.7633 302.371 64.795 307.89 71.6227C312.198 76.953 317.499 82.7867 323.263 89.129C325.262 91.3289 327.316 93.5899 329.404 95.9123C337.521 104.94 346.161 114.914 354.076 125.893C369.906 147.852 382.808 173.792 382.808 204.142C382.808 219.305 379.161 231.053 373.23 240.623C367.294 250.199 359.052 257.621 349.82 264.103C342.808 269.026 335.249 273.392 327.704 277.749C325.305 279.135 322.907 280.52 320.529 281.921C310.688 287.72 301.198 293.799 293.45 301.377C287.096 307.591 281.529 313.768 276.263 319.612C275.551 320.402 274.845 321.186 274.143 321.963C268.242 328.493 262.647 334.538 256.622 339.702C244.595 350.007 230.846 356.808 209.556 356.808C154.818 356.808 120.411 325.807 91.5048 282.481C87.0323 275.777 80.2488 269.028 72.6327 261.854C71.0756 260.387 69.4832 258.902 67.8674 257.395C61.566 251.519 54.9093 245.311 48.6009 238.556C32.7549 221.586 19.1923 201.245 19.1923 174.322C19.1923 152.853 31.91 137.041 46.2122 123.671C50.423 119.734 54.7382 116.038 58.9025 112.471C61.8299 109.963 64.6827 107.519 67.3724 105.101C73.8495 99.2771 79.3323 93.6392 82.3199 87.8015C109.184 35.3092 148.144 -6.80762 209.556 -6.80762Z" stroke="white"/>
<path d="M208.415 17.5C229.756 17.5 244.642 26.5528 257.399 39.573C263.784 46.0902 269.631 53.597 275.485 61.4622C276.955 63.4373 278.426 65.4355 279.906 67.446C284.314 73.4333 288.802 79.5294 293.586 85.4482C297.321 90.0694 301.917 95.1274 306.913 100.625C308.645 102.531 310.425 104.49 312.234 106.502C319.268 114.325 326.754 122.968 333.611 132.479C347.327 151.505 358.5 173.973 358.5 200.257C358.5 213.386 355.343 223.555 350.209 231.838C345.071 240.127 337.936 246.553 329.939 252.168C323.865 256.433 317.317 260.215 310.779 263.991C308.699 265.192 306.62 266.392 304.558 267.607C296.029 272.634 287.798 277.906 281.076 284.479C275.568 289.866 270.742 295.222 266.177 300.287C265.561 300.971 264.949 301.65 264.341 302.323C259.227 307.983 254.381 313.219 249.162 317.691C238.75 326.613 226.849 332.5 208.415 332.5C161.008 332.5 131.206 305.654 106.16 268.113C102.279 262.296 96.3942 256.442 89.7941 250.224C88.4441 248.953 87.0637 247.666 85.6632 246.36C80.2022 241.267 74.4351 235.889 68.9695 230.036C55.241 215.334 43.5 197.721 43.5 174.413C43.5 155.835 54.5038 142.148 66.8961 130.563C70.5454 127.152 74.2822 123.951 77.8897 120.861C80.4268 118.687 82.9 116.569 85.234 114.47C90.8477 109.423 95.6079 104.53 98.2032 99.4583C121.482 53.9728 155.229 17.5 208.415 17.5Z" stroke="white"/>
<path d="M207.274 41.8076C225.305 41.8076 237.883 49.4547 248.667 60.4617C254.066 65.9723 259.011 72.3206 263.964 78.9754C265.208 80.6461 266.452 82.3366 267.704 84.0377C271.434 89.1041 275.233 94.2641 279.282 99.2736C282.444 103.186 286.336 107.468 290.563 112.12C292.028 113.733 293.534 115.39 295.064 117.091C301.015 123.711 307.347 131.021 313.147 139.066C324.748 155.158 334.192 174.153 334.192 196.371C334.192 207.467 331.524 216.058 327.188 223.053C322.848 230.054 316.82 235.485 310.058 240.233C304.921 243.84 299.385 247.037 293.853 250.232C292.093 251.248 290.333 252.265 288.587 253.294C281.369 257.547 274.398 262.012 268.703 267.581C264.04 272.141 259.955 276.675 256.093 280.96C255.571 281.539 255.054 282.114 254.539 282.683C250.212 287.473 246.114 291.899 241.702 295.68C232.904 303.219 222.851 308.192 207.274 308.192C167.198 308.192 142.001 285.501 120.814 253.745C117.525 248.815 112.54 243.856 106.955 238.595C105.813 237.519 104.644 236.429 103.459 235.324C98.8381 231.015 93.9608 226.467 89.3381 221.516C77.727 209.082 67.8077 194.197 67.8077 174.503C67.8077 158.817 77.0976 147.255 87.58 137.456C90.6678 134.569 93.8261 131.864 96.8768 129.251C99.0237 127.412 101.117 125.618 103.096 123.84C107.846 119.568 111.883 115.42 114.087 111.115C133.779 72.6365 162.315 41.8076 207.274 41.8076Z" stroke="white"/>
<path d="M206.134 66.1155C220.855 66.1155 231.124 72.3568 239.935 81.3506C244.348 85.8546 248.391 91.0446 252.443 96.4888C253.46 97.8548 254.478 99.2373 255.502 100.629C258.554 104.774 261.664 108.999 264.978 113.099C267.567 116.303 270.754 119.809 274.213 123.616C275.412 124.935 276.643 126.29 277.894 127.681C282.762 133.096 287.941 139.074 292.683 145.653C302.169 158.811 309.885 174.334 309.885 192.485C309.885 201.548 307.706 208.56 304.168 214.268C300.626 219.983 295.704 224.418 290.177 228.298C285.978 231.247 281.453 233.86 276.928 236.473C275.487 237.305 274.046 238.137 272.616 238.98C266.71 242.461 260.997 246.119 256.33 250.683C252.513 254.416 249.168 258.128 246.008 261.634C245.582 262.108 245.158 262.578 244.737 263.044C241.196 266.962 237.847 270.58 234.243 273.669C227.059 279.825 218.854 283.885 206.134 283.885C173.388 283.885 152.797 265.349 135.469 239.377C132.771 235.334 128.685 231.27 124.117 226.967C123.181 226.085 122.224 225.193 121.254 224.288C117.474 220.763 113.487 217.045 109.707 212.997C100.213 202.83 92.1154 190.673 92.1154 174.593C92.1154 161.799 99.6915 152.362 108.264 144.348C110.79 141.987 113.37 139.777 115.864 137.641C117.621 136.136 119.335 134.668 120.957 133.209C124.844 129.714 128.159 126.31 129.97 122.772C146.076 91.3004 169.4 66.1155 206.134 66.1155Z" stroke="white"/>
<path d="M204.993 90.4231C216.405 90.4231 224.364 95.2586 231.204 102.239C234.63 105.737 237.771 109.768 240.922 114.002C241.712 115.063 242.503 116.138 243.3 117.22C245.674 120.445 248.095 123.733 250.674 126.925C252.69 129.419 255.172 132.15 257.863 135.112C258.795 136.137 259.752 137.19 260.724 138.271C264.509 142.481 268.534 147.128 272.219 152.239C279.59 162.464 285.577 174.515 285.577 188.6C285.577 195.63 283.887 201.063 281.147 205.483C278.403 209.91 274.588 213.35 270.296 216.363C267.034 218.653 263.521 220.682 260.003 222.714C258.881 223.362 257.759 224.01 256.645 224.667C252.05 227.375 247.597 230.225 243.957 233.785C240.985 236.691 238.381 239.581 235.924 242.308C235.592 242.676 235.263 243.042 234.935 243.404C232.181 246.452 229.581 249.261 226.783 251.658C221.213 256.431 214.857 259.577 204.993 259.577C179.578 259.577 163.592 245.196 150.124 225.01C148.018 221.853 144.831 218.684 141.278 215.338C140.549 214.651 139.805 213.957 139.05 213.253C136.11 210.511 133.012 207.622 130.075 204.477C122.699 196.578 116.423 187.148 116.423 174.684C116.423 164.781 122.285 157.469 128.948 151.241C130.913 149.404 132.914 147.69 134.851 146.031C136.218 144.861 137.552 143.718 138.819 142.579C141.843 139.86 144.435 137.201 145.853 134.429C158.374 109.964 176.485 90.4231 204.993 90.4231Z" stroke="white"/>
<path d="M203.852 114.731C211.954 114.731 217.605 118.16 222.472 123.128C224.912 125.619 227.151 128.492 229.401 131.515C229.965 132.272 230.529 133.039 231.098 133.811C232.794 136.115 234.526 138.468 236.371 140.75C237.813 142.535 239.59 144.49 241.514 146.607C242.179 147.339 242.861 148.09 243.554 148.86C246.257 151.867 249.127 155.181 251.755 158.826C257.011 166.117 261.269 174.696 261.269 184.714C261.269 189.711 260.069 193.565 258.127 196.699C256.18 199.838 253.472 202.282 250.415 204.428C248.091 206.06 245.589 207.505 243.077 208.956C242.275 209.419 241.472 209.882 240.674 210.353C237.39 212.288 234.197 214.331 231.583 216.887C229.457 218.966 227.594 221.034 225.839 222.981C225.602 223.245 225.367 223.505 225.134 223.764C223.166 225.941 221.314 227.942 219.324 229.647C215.368 233.037 210.86 235.269 203.852 235.269C185.768 235.269 174.387 225.044 164.779 210.642C163.264 208.371 160.976 206.098 158.439 203.708C157.918 203.217 157.385 202.721 156.846 202.217C154.746 200.259 152.538 198.2 150.444 195.958C145.185 190.326 140.731 183.624 140.731 174.774C140.731 167.763 144.879 162.576 149.632 158.134C151.035 156.822 152.458 155.603 153.838 154.421C154.815 153.585 155.769 152.767 156.68 151.948C158.841 150.006 160.71 148.091 161.737 146.086C170.671 128.628 183.571 114.731 203.852 114.731Z" stroke="white"/>
<path d="M202.711 139.039C207.504 139.039 210.846 141.063 213.74 144.017C215.195 145.501 216.531 147.216 217.88 149.029C218.217 149.481 218.555 149.94 218.895 150.403C219.914 151.786 220.957 153.203 222.067 154.576C222.936 155.652 224.008 156.831 225.164 158.103C225.562 158.541 225.97 158.99 226.383 159.45C228.004 161.252 229.72 163.235 231.291 165.413C234.432 169.77 236.962 174.876 236.962 180.829C236.962 183.792 236.25 186.068 235.106 187.914C233.958 189.766 232.356 191.214 230.534 192.493C229.148 193.467 227.657 194.328 226.152 195.197C225.669 195.476 225.185 195.755 224.703 196.04C222.731 197.202 220.797 198.438 219.21 199.99C217.93 201.242 216.808 202.487 215.755 203.655C215.613 203.813 215.472 203.97 215.332 204.124C214.151 205.431 213.048 206.623 211.864 207.637C209.522 209.643 206.862 210.962 202.711 210.962C191.958 210.962 185.183 204.891 179.434 196.274C178.511 194.891 177.122 193.512 175.601 192.08C175.286 191.783 174.966 191.485 174.641 191.182C173.382 190.008 172.064 188.778 170.813 187.438C167.671 184.074 165.038 180.1 165.038 174.865C165.038 170.745 167.473 167.684 170.316 165.026C171.158 164.239 172.002 163.516 172.826 162.811C173.412 162.309 173.986 161.817 174.542 161.318C175.839 160.151 176.986 158.982 177.62 157.743C182.969 147.292 190.656 139.039 202.711 139.039Z" stroke="white"/>
<path d="M201.856 157.269C204.166 157.269 205.776 158.239 207.192 159.683C207.906 160.413 208.566 161.259 209.24 162.164C209.406 162.388 209.574 162.616 209.744 162.846C210.254 163.539 210.78 164.254 211.339 164.945C211.779 165.489 212.322 166.087 212.901 166.724C213.099 166.943 213.302 167.165 213.506 167.392C214.314 168.291 215.165 169.275 215.943 170.352C217.498 172.51 218.731 175.012 218.731 177.914C218.731 179.353 218.386 180.445 217.84 181.325C217.291 182.212 216.519 182.913 215.623 183.542C214.94 184.022 214.208 184.445 213.458 184.878C213.215 185.018 212.97 185.16 212.724 185.304C211.736 185.887 210.747 186.518 209.93 187.316C209.284 187.948 208.717 188.577 208.192 189.161C208.12 189.239 208.05 189.317 207.98 189.395C207.39 190.048 206.848 190.633 206.269 191.129C205.138 192.098 203.865 192.731 201.856 192.731C196.601 192.731 193.279 189.777 190.425 185.498C189.945 184.78 189.231 184.073 188.472 183.358C188.313 183.208 188.151 183.057 187.988 182.905C187.359 182.319 186.708 181.712 186.089 181.048C184.536 179.385 183.269 177.457 183.269 174.932C183.269 172.982 184.419 171.514 185.829 170.196C186.249 169.802 186.661 169.45 187.066 169.103C187.359 168.853 187.649 168.604 187.938 168.345C188.588 167.761 189.193 167.149 189.533 166.485C192.192 161.289 195.97 157.269 201.856 157.269Z" stroke="white"/>
<path d="M1158.08 1101.2C1050.79 1101.2 966.413 1054.23 908.846 980.249C851.27 906.26 820.5 805.241 820.5 697.167C820.5 649.69 843.881 595.325 874.329 544.297C904.767 493.286 942.224 445.683 970.287 411.743C974.907 406.156 979.547 400.499 984.217 394.805C1015.63 356.5 1048.42 316.526 1085.84 284.723C1128.8 248.204 1177.82 222.5 1237.81 222.5C1401.7 222.5 1522.89 366.379 1579.99 511.137C1584.41 522.345 1591.73 536.407 1600.2 551.972C1603.01 557.142 1605.95 562.479 1608.96 567.934C1615.01 578.913 1621.33 590.371 1627.4 601.922C1636.49 619.21 1645.01 636.681 1651.27 653.01C1657.53 669.348 1661.5 684.502 1661.5 697.167C1661.5 748.806 1638.04 787.72 1606.37 822.505C1590.54 839.902 1572.66 856.253 1554.65 872.647L1553.09 874.068C1535.6 889.985 1518.03 905.972 1502.16 922.997C1466.71 961.044 1408.63 1005.6 1345.42 1040.65C1282.2 1075.71 1213.93 1101.2 1158.08 1101.2Z" stroke="white"/>
<path d="M1163.03 1069.78C1062.15 1069.78 982.822 1026.17 928.698 957.482C874.565 888.786 845.634 794.991 845.634 694.645C845.634 650.57 867.614 600.096 896.244 552.715C924.864 505.349 960.082 461.148 986.47 429.633C990.814 424.445 995.177 419.192 999.568 413.905C1029.11 378.336 1059.94 341.22 1095.12 311.69C1135.51 277.783 1181.6 253.918 1238 253.918C1392.09 253.918 1506.04 387.507 1559.72 521.917C1563.88 532.327 1570.76 545.387 1578.73 559.84C1581.37 564.642 1584.14 569.597 1586.97 574.663C1592.66 584.857 1598.59 595.496 1604.3 606.222C1612.85 622.274 1620.87 638.495 1626.75 653.656C1632.64 668.825 1636.37 682.892 1636.37 694.645C1636.37 742.581 1614.31 778.706 1584.54 811.004C1569.65 827.156 1552.84 842.339 1535.91 857.562L1534.44 858.882C1517.99 873.662 1501.47 888.507 1486.55 904.317C1453.22 939.644 1398.61 981.02 1339.18 1013.56C1279.73 1046.11 1215.54 1069.78 1163.03 1069.78Z" stroke="white"/>
<path d="M1167.98 1044.65C1073.52 1044.65 999.234 1003.72 948.552 939.271C897.861 874.808 870.769 786.792 870.769 692.627C870.769 651.273 891.349 603.911 918.161 559.446C944.962 514.998 977.943 473.518 1002.66 443.943C1006.72 439.073 1010.81 434.144 1014.92 429.182C1042.59 395.802 1071.46 360.972 1104.4 333.262C1142.23 301.444 1185.38 279.052 1238.19 279.052C1382.48 279.052 1489.18 404.404 1539.46 530.539C1543.35 540.311 1549.8 552.569 1557.26 566.132C1559.73 570.638 1562.32 575.288 1564.97 580.042C1570.3 589.609 1575.86 599.594 1581.21 609.659C1589.21 624.723 1596.72 639.945 1602.23 654.172C1607.74 668.406 1611.23 681.603 1611.23 692.627C1611.23 737.602 1590.58 771.497 1562.7 801.805C1548.76 816.962 1533.02 831.209 1517.16 845.495L1515.78 846.735C1500.38 860.606 1484.91 874.538 1470.94 889.375C1439.73 922.525 1388.59 961.353 1332.93 991.892C1277.26 1022.44 1217.14 1044.65 1167.98 1044.65Z" stroke="white"/>
<path d="M1172.93 1019.51C1084.88 1019.51 1015.65 981.278 968.406 921.06C921.157 860.831 895.903 778.594 895.903 690.608C895.903 651.976 915.084 607.726 940.077 566.178C965.06 524.646 995.804 485.888 1018.84 458.253C1022.63 453.702 1026.44 449.096 1030.28 444.459C1056.07 413.268 1082.98 380.724 1113.68 354.833C1148.94 325.105 1189.17 304.187 1238.38 304.187C1372.87 304.187 1472.33 421.301 1519.19 539.162C1522.82 548.295 1528.83 559.75 1535.78 572.424C1538.1 576.635 1540.51 580.982 1542.98 585.424C1547.95 594.363 1553.13 603.692 1558.11 613.096C1565.57 627.172 1572.57 641.395 1577.71 654.687C1582.84 667.986 1586.1 680.313 1586.1 690.608C1586.1 732.624 1566.85 764.289 1540.87 792.606C1527.87 806.767 1513.2 820.08 1498.41 833.429L1497.13 834.587C1482.77 847.548 1468.35 860.568 1455.32 874.434C1426.23 905.407 1378.56 941.686 1326.68 970.222C1274.79 998.763 1218.75 1019.51 1172.93 1019.51Z" stroke="white"/>
<path d="M1177.88 994.38C1096.25 994.38 1032.06 958.832 988.26 902.848C944.453 846.853 921.037 770.395 921.037 688.59C921.037 652.678 938.82 611.54 961.994 572.909C985.159 534.294 1013.67 498.258 1035.03 472.562C1038.54 468.331 1042.08 464.047 1045.63 459.736C1069.55 430.733 1094.5 400.477 1122.97 376.405C1155.66 348.766 1192.95 329.321 1238.57 329.321C1363.25 329.321 1455.47 438.198 1498.93 547.784C1502.29 556.278 1507.87 566.932 1514.31 578.716C1516.46 582.632 1518.7 586.674 1520.99 590.805C1525.59 599.116 1530.4 607.79 1535.02 616.534C1541.93 629.621 1548.42 642.844 1553.18 655.201C1557.95 667.566 1560.96 679.024 1560.96 688.59C1560.96 727.645 1543.13 757.08 1519.03 783.406C1506.98 796.573 1493.38 808.95 1479.67 821.363L1478.48 822.439C1465.17 834.49 1451.79 846.597 1439.71 859.492C1412.74 888.288 1368.54 922.02 1320.43 948.551C1272.31 975.088 1220.36 994.38 1177.88 994.38Z" stroke="white"/>
<path d="M1182.83 969.246C1107.62 969.246 1048.47 936.387 1008.11 884.637C967.749 832.876 946.172 762.197 946.172 686.572C946.172 653.381 962.555 615.355 983.911 579.641C1005.26 543.943 1031.53 510.627 1051.21 486.872C1054.45 482.96 1057.71 478.999 1060.98 475.014C1083.02 448.199 1106.02 420.229 1132.25 397.976C1162.37 372.427 1196.73 354.455 1238.76 354.455C1353.64 354.455 1438.62 455.095 1478.66 556.406C1481.77 564.262 1486.9 574.113 1492.84 585.008C1494.82 588.629 1496.88 592.365 1498.99 596.184C1503.23 603.868 1507.66 611.887 1511.92 619.971C1518.3 632.07 1524.28 644.294 1528.66 655.716C1533.05 667.147 1535.83 677.734 1535.83 686.572C1535.83 722.667 1519.4 749.872 1497.2 774.208C1486.09 786.379 1473.56 797.821 1460.92 809.297L1459.82 810.294C1447.56 821.435 1435.23 832.629 1424.1 844.55C1399.24 871.17 1358.51 902.353 1314.18 926.881C1269.84 951.414 1221.97 969.246 1182.83 969.246Z" stroke="white"/>
<path d="M1187.78 944.112C1118.98 944.112 1064.88 913.943 1027.97 866.426C991.045 818.899 971.306 753.998 971.306 684.554C971.306 654.083 986.29 619.169 1005.83 586.372C1025.36 553.591 1049.39 522.997 1067.4 501.181C1070.36 497.588 1073.34 493.951 1076.34 490.291C1096.5 465.665 1117.53 439.981 1141.53 419.548C1169.09 396.088 1200.51 379.59 1238.95 379.59C1344.03 379.59 1421.76 471.992 1458.39 565.028C1461.24 572.245 1465.94 581.294 1471.37 591.3C1473.18 594.625 1475.07 598.057 1477 601.565C1480.88 608.621 1484.93 615.984 1488.83 623.408C1494.66 634.519 1500.13 645.743 1504.14 656.231C1508.16 666.727 1510.69 676.445 1510.69 684.554C1510.69 717.689 1495.67 742.664 1475.36 765.009C1465.2 776.185 1453.74 786.691 1442.18 797.231L1441.17 798.147C1429.95 808.378 1418.67 818.659 1408.48 829.609C1385.74 854.052 1348.49 882.687 1307.93 905.21C1267.37 927.74 1223.58 944.112 1187.78 944.112Z" stroke="white"/>
<path d="M1192.73 912.694C1130.34 912.694 1081.29 885.882 1047.82 843.658C1014.34 801.423 996.44 743.748 996.44 682.032C996.44 654.965 1010.02 623.942 1027.74 594.791C1045.45 565.656 1067.25 538.464 1083.58 519.072C1086.27 515.878 1088.97 512.645 1091.69 509.391C1109.98 487.502 1129.05 464.676 1150.81 446.516C1175.8 425.667 1204.29 411.007 1239.14 411.007C1334.42 411.007 1404.91 493.123 1438.13 575.81C1440.71 582.229 1444.97 590.275 1449.9 599.169C1451.54 602.125 1453.25 605.176 1455 608.293C1458.53 614.566 1462.2 621.11 1465.73 627.709C1471.02 637.585 1475.98 647.559 1479.62 656.879C1483.26 666.206 1485.56 674.835 1485.56 682.032C1485.56 711.462 1471.94 733.648 1453.53 753.506C1444.32 763.438 1433.92 772.776 1423.43 782.144L1422.52 782.96C1412.34 792.053 1402.11 801.193 1392.87 810.928C1372.25 832.65 1338.46 858.1 1301.69 878.12C1264.9 898.144 1225.19 912.694 1192.73 912.694Z" stroke="white"/>
<path d="M1197.68 887.56C1141.71 887.56 1097.7 863.437 1067.67 825.447C1037.64 787.445 1021.57 735.549 1021.57 680.014C1021.57 655.667 1033.76 627.757 1049.66 601.522C1065.55 575.304 1085.11 550.834 1099.76 533.382C1102.18 530.507 1104.6 527.597 1107.04 524.669C1123.46 504.968 1140.57 484.428 1160.1 468.087C1182.51 449.328 1208.07 436.142 1239.33 436.142C1324.8 436.142 1388.05 510.02 1417.86 584.432C1420.18 590.212 1424.01 597.457 1428.43 605.461C1429.9 608.122 1431.44 610.868 1433.01 613.675C1436.17 619.319 1439.47 625.208 1442.64 631.146C1447.39 640.034 1451.84 649.009 1455.1 657.394C1458.37 665.786 1460.43 673.546 1460.43 680.014C1460.43 706.484 1448.21 726.44 1431.69 744.307C1423.43 753.244 1414.1 761.646 1404.69 770.078L1403.87 770.812C1394.73 778.996 1385.55 787.223 1377.26 795.986C1358.76 815.531 1328.44 838.434 1295.44 856.449C1262.42 874.47 1226.8 887.56 1197.68 887.56Z" stroke="white"/>
<path d="M1202.63 862.425C1153.08 862.425 1114.11 840.992 1087.53 807.235C1060.93 773.468 1046.71 727.351 1046.71 677.995C1046.71 656.37 1057.49 631.571 1071.58 608.253C1085.65 584.952 1102.97 563.203 1115.95 547.691C1118.09 545.135 1120.24 542.549 1122.4 539.946C1136.94 522.433 1152.09 504.18 1169.38 489.658C1189.23 472.989 1211.85 461.276 1239.52 461.276C1315.19 461.276 1371.19 526.917 1397.6 593.054C1399.65 598.196 1403.04 604.638 1406.96 611.752C1408.26 614.119 1409.63 616.56 1411.02 619.054C1413.82 624.071 1416.74 629.305 1419.54 634.583C1423.75 642.483 1427.69 650.458 1430.58 657.908C1433.47 665.366 1435.29 672.256 1435.29 677.995C1435.29 701.505 1424.48 719.231 1409.86 735.108C1402.54 743.05 1394.28 750.517 1385.94 758.012L1385.22 758.665C1377.13 765.939 1368.99 773.254 1361.64 781.045C1345.26 798.413 1318.41 818.767 1289.19 834.779C1259.95 850.796 1228.41 862.425 1202.63 862.425Z" stroke="white"/>
<path d="M1207.58 837.291C1164.44 837.291 1130.53 818.547 1107.38 789.024C1084.23 759.491 1071.84 719.152 1071.84 675.977C1071.84 657.072 1081.23 635.385 1093.49 614.985C1105.75 594.6 1120.83 575.573 1132.14 562C1134 559.764 1135.87 557.5 1137.75 555.222C1150.41 539.899 1163.61 523.932 1178.66 511.23C1195.94 496.65 1215.63 486.41 1239.71 486.41C1305.58 486.41 1354.34 543.813 1377.33 601.676C1379.12 606.179 1382.08 611.819 1385.49 618.044C1386.62 620.115 1387.81 622.252 1389.02 624.434C1391.46 628.824 1394 633.403 1396.45 638.02C1400.11 644.931 1403.54 651.908 1406.05 658.423C1408.57 664.946 1410.16 670.967 1410.16 675.977C1410.16 696.527 1400.76 712.023 1388.02 725.909C1381.65 732.856 1374.46 739.387 1367.2 745.946L1366.56 746.519C1359.52 752.883 1352.43 759.285 1346.03 766.103C1331.77 781.295 1308.39 799.101 1282.94 813.108C1257.48 827.121 1230.01 837.291 1207.58 837.291Z" stroke="white"/>
<path d="M1212.53 812.157C1175.81 812.157 1146.94 796.102 1127.24 770.814C1107.52 745.514 1096.98 710.954 1096.98 673.959C1096.98 657.774 1104.96 639.199 1115.41 621.715C1125.85 604.247 1138.69 587.942 1148.32 576.309C1149.91 574.392 1151.5 572.451 1153.11 570.499C1163.89 557.364 1175.13 543.684 1187.95 532.801C1202.66 520.31 1219.42 511.545 1239.91 511.545C1295.96 511.545 1337.48 560.709 1357.06 610.298C1358.59 614.162 1361.11 619 1364.02 624.335C1364.99 626.111 1366 627.943 1367.03 629.814C1369.11 633.576 1371.27 637.499 1373.35 641.457C1376.47 647.38 1379.39 653.357 1381.53 658.937C1383.68 664.526 1385.02 669.677 1385.02 673.959C1385.02 691.55 1377.03 704.816 1366.18 716.711C1360.76 722.662 1354.63 728.258 1348.45 733.881L1347.91 734.372C1341.91 739.827 1335.87 745.315 1330.41 751.162C1318.27 764.177 1298.36 779.435 1276.69 791.438C1255 803.447 1231.62 812.157 1212.53 812.157Z" stroke="white"/>
<path d="M1217.48 787.022C1187.18 787.022 1163.35 773.658 1147.09 752.604C1130.82 731.538 1122.11 702.756 1122.11 671.941C1122.11 658.476 1128.7 643.012 1137.33 628.446C1145.94 613.895 1156.55 600.31 1164.51 590.618C1165.82 589.019 1167.14 587.402 1168.46 585.775C1177.37 574.828 1186.65 563.435 1197.23 554.371C1209.38 543.971 1223.2 536.679 1240.1 536.679C1286.35 536.679 1320.62 577.604 1336.8 618.919C1338.06 622.145 1340.14 626.18 1342.55 630.626C1343.35 632.107 1344.18 633.634 1345.03 635.193C1346.75 638.328 1348.54 641.596 1350.26 644.893C1352.83 649.828 1355.24 654.805 1357.01 659.451C1358.78 664.105 1359.89 668.387 1359.89 671.941C1359.89 686.572 1353.3 697.609 1344.35 707.513C1339.87 712.469 1334.81 717.13 1329.7 721.815L1329.26 722.226C1324.3 726.771 1319.31 731.347 1314.8 736.222C1304.78 747.059 1288.34 759.769 1270.44 769.768C1252.53 779.774 1233.23 787.022 1217.48 787.022Z" stroke="white"/>
<path d="M1222.43 761.888C1198.55 761.888 1179.77 751.215 1166.95 734.395C1154.12 717.563 1147.25 694.559 1147.25 669.923C1147.25 659.177 1152.44 646.825 1159.25 635.175C1166.04 623.541 1174.42 612.678 1180.69 604.925C1181.73 603.646 1182.77 602.352 1183.82 601.05C1190.85 592.292 1198.17 583.185 1206.52 575.941C1216.09 567.63 1226.98 561.813 1240.29 561.813C1276.73 561.813 1303.77 594.496 1316.53 627.54C1317.53 630.127 1319.18 633.36 1321.07 636.916C1321.71 638.102 1322.37 639.323 1323.04 640.571C1324.39 643.079 1325.8 645.692 1327.16 648.329C1329.19 652.275 1331.1 656.253 1332.49 659.965C1333.88 663.684 1334.75 667.097 1334.75 669.923C1334.75 681.596 1329.57 690.403 1322.51 698.316C1318.98 702.277 1314.99 706.002 1310.95 709.751L1310.6 710.08C1306.69 713.715 1302.74 717.379 1299.18 721.282C1291.28 729.943 1278.31 740.104 1264.19 748.099C1250.05 756.1 1234.84 761.888 1222.43 761.888Z" stroke="white"/>
<path d="M1226.15 736.754C1207.06 736.754 1192.06 728.758 1181.83 716.171C1171.58 703.573 1166.1 686.353 1166.1 667.905C1166.1 659.889 1170.23 650.654 1175.67 641.919C1181.11 633.202 1187.8 625.061 1192.82 619.247C1193.65 618.287 1194.48 617.317 1195.32 616.34C1200.95 609.771 1206.8 602.95 1213.47 597.523C1221.12 591.3 1229.81 586.948 1240.43 586.948C1269.54 586.948 1291.14 611.42 1301.34 636.173C1302.14 638.122 1303.46 640.554 1304.98 643.221C1305.48 644.111 1306.01 645.028 1306.55 645.964C1307.63 647.844 1308.76 649.802 1309.85 651.778C1311.47 654.736 1312.99 657.714 1314.1 660.49C1315.22 663.275 1315.9 665.814 1315.9 667.905C1315.9 676.605 1311.78 683.178 1306.14 689.105C1303.32 692.071 1300.14 694.862 1296.91 697.674L1296.62 697.922C1293.49 700.647 1290.34 703.397 1287.48 706.328C1281.17 712.813 1270.8 720.428 1259.51 726.422C1248.21 732.42 1236.05 736.754 1226.15 736.754Z" stroke="white"/>
<path d="M1229.86 717.903C1215.58 717.903 1204.37 711.924 1196.72 702.512C1189.06 693.089 1184.95 680.204 1184.95 666.391C1184.95 660.416 1188.03 653.515 1192.11 646.968C1196.18 640.439 1201.2 634.338 1204.96 629.98C1205.58 629.259 1206.21 628.531 1206.84 627.798C1211.06 622.871 1215.44 617.764 1220.43 613.702C1226.15 609.046 1232.64 605.798 1240.57 605.798C1262.33 605.798 1278.49 624.094 1286.14 642.64C1286.74 644.11 1287.74 645.94 1288.87 647.94C1289.25 648.609 1289.65 649.297 1290.06 650C1290.87 651.409 1291.71 652.875 1292.53 654.356C1293.74 656.574 1294.88 658.802 1295.71 660.877C1296.54 662.96 1297.05 664.847 1297.05 666.391C1297.05 672.871 1293.98 677.772 1289.77 682.205C1287.66 684.425 1285.27 686.514 1282.85 688.624L1282.63 688.811C1280.29 690.854 1277.92 692.92 1275.77 695.122C1271.05 699.974 1263.29 705.678 1254.83 710.168C1246.35 714.663 1237.26 717.903 1229.86 717.903Z" stroke="white"/>
<path d="M1233.57 699.052C1224.11 699.052 1216.68 695.09 1211.61 688.853C1206.53 682.606 1203.8 674.055 1203.8 664.878C1203.8 660.943 1205.83 656.376 1208.55 652.017C1211.26 647.675 1214.59 643.616 1217.1 640.712C1217.52 640.231 1217.93 639.745 1218.35 639.256C1221.17 635.97 1224.08 632.579 1227.39 629.881C1231.19 626.792 1235.48 624.649 1240.71 624.649C1255.12 624.649 1265.85 636.767 1270.94 649.107C1271.35 650.098 1272.01 651.327 1272.77 652.659C1273.03 653.107 1273.29 653.567 1273.56 654.035C1274.1 654.974 1274.66 655.949 1275.2 656.935C1276.01 658.411 1276.77 659.889 1277.32 661.263C1277.87 662.646 1278.2 663.88 1278.2 664.878C1278.2 669.137 1276.19 672.365 1273.39 675.305C1271.99 676.778 1270.4 678.166 1268.79 679.574L1268.64 679.7C1267.08 681.061 1265.5 682.442 1264.06 683.915C1260.93 687.135 1255.77 690.928 1250.14 693.915C1244.5 696.907 1238.46 699.052 1233.57 699.052Z" stroke="white"/>
<path d="M1237.29 680.201C1232.63 680.201 1228.99 678.256 1226.5 675.194C1224 672.123 1222.65 667.906 1222.65 663.364C1222.65 661.471 1223.63 659.238 1224.99 657.066C1226.33 654.912 1227.99 652.894 1229.24 651.445C1229.45 651.203 1229.66 650.959 1229.87 650.715C1231.28 649.07 1232.71 647.393 1234.35 646.06C1236.22 644.539 1238.32 643.5 1240.86 643.5C1247.91 643.5 1253.21 649.441 1255.74 655.574C1255.95 656.086 1256.29 656.713 1256.67 657.379C1256.8 657.605 1256.93 657.836 1257.07 658.071C1257.33 658.539 1257.61 659.022 1257.88 659.513C1258.29 660.248 1258.66 660.977 1258.93 661.65C1259.2 662.331 1259.35 662.913 1259.35 663.364C1259.35 665.403 1258.39 666.958 1257.01 668.406C1256.32 669.133 1255.54 669.819 1254.73 670.524L1254.65 670.59C1253.88 671.268 1253.08 671.965 1252.35 672.709C1250.81 674.296 1248.25 676.178 1245.45 677.662C1242.65 679.152 1239.67 680.201 1237.29 680.201Z" stroke="white"/>
</g>
<defs>
<clipPath id="clip0">
<rect width="1350" height="768" fill="white"/>
</clipPath>
</defs>
</svg>
