<svg width="32" height="32" viewBox="0 0 32 32" fill="none" xmlns="http://www.w3.org/2000/svg">
<path d="M18.0095 5.62622C19.5983 9.38919 22.4276 11.4041 23.3264 16.38C23.8711 19.3957 23.3264 23.9193 18.3828 24.6732C14.9373 25.1986 12.6094 21.8545 12.6094 18.2806C12.6094 14.148 15.3868 9.74549 17.7836 6.42822" stroke="#2248AA" stroke-width="0.7" stroke-linecap="round" stroke-linejoin="round"/>
<path d="M19.6973 11.4014C21.1323 12.8458 23.3077 17.238 22.3598 19.3847C21.3277 21.7222 20.1373 18.811 20.5317 17.4219C20.862 16.2581 20.5218 13.4992 20.1942 12.345" stroke="#2248AA" stroke-width="0.7" stroke-linecap="round" stroke-linejoin="round"/>
<path d="M16.885 7.78528C15.387 11.7057 15.212 15.6459 15.3871 18.6418C15.5622 21.6376 18.8325 23.6177 20.4804 23.6177" stroke="#2248AA" stroke-width="0.7" stroke-linecap="round" stroke-linejoin="round"/>
<path d="M19.7812 1.04004C17.2443 1.04004 15.3824 1.43318 13.1154 2.70087C7.97631 5.5746 5.85901 11.7708 5.85901 17.4313C5.85901 23.2991 10.443 29.7511 15.5623 30.5103C26.0226 32.0616 30.2225 21.6133 29.9907 15.7799C29.8847 13.1131 29.5628 10.7295 28.4719 8.25898C27.1338 5.22838 23.2894 1.04004 19.7812 1.04004Z" stroke="#2248AA" stroke-width="0.7" stroke-linecap="round" stroke-linejoin="round"/>
<path d="M17.634 1C8.34615 1.60314 3.70221 6.72982 3 15.0628C3 27.0858 9.09517 31.6093 18.0097 30.935" stroke="#2248AA" stroke-width="0.7" stroke-linecap="round" stroke-linejoin="round"/>
<path d="M18.0833 2.65865C23.9256 2.05551 28.3035 8.48 28.3035 15.0533C28.3035 19.3646 27.5115 23.8244 24.4596 26.8962" stroke="#2248AA" stroke-width="0.7" stroke-linecap="round" stroke-linejoin="round"/>
<path d="M7.3782 8.17412C6.848 8.2377 6.12855 8.08691 5.49976 8.08691" stroke="#2248AA" stroke-width="0.7" stroke-linecap="round" stroke-linejoin="round"/>
<path d="M7.67788 25.5936C7.14768 25.53 6.42823 25.6808 5.79944 25.6808" stroke="#2248AA" stroke-width="0.7" stroke-linecap="round" stroke-linejoin="round"/>
<path d="M6.47927 9.68194C5.94907 9.74551 5.22962 9.59473 4.60083 9.59473" stroke="#2248AA" stroke-width="0.7" stroke-linecap="round" stroke-linejoin="round"/>
<path d="M6.7792 24.0856C6.249 24.0221 5.52955 24.1729 4.90076 24.1729" stroke="#2248AA" stroke-width="0.7" stroke-linecap="round" stroke-linejoin="round"/>
<path d="M5.88015 11.793C5.34995 11.8566 4.6305 11.7058 4.00171 11.7058" stroke="#2248AA" stroke-width="0.7" stroke-linecap="round" stroke-linejoin="round"/>
<path d="M6.18032 21.9748C5.65012 21.9112 4.93067 22.062 4.30188 22.062" stroke="#2248AA" stroke-width="0.7" stroke-linecap="round" stroke-linejoin="round"/>
<path d="M5.28127 14.8086C4.75107 14.8722 4.03163 14.7214 3.40283 14.7214" stroke="#2248AA" stroke-width="0.7" stroke-linecap="round" stroke-linejoin="round"/>
<path d="M5.58047 18.9591C5.05027 18.8955 4.33082 19.0463 3.70203 19.0463" stroke="#2248AA" stroke-width="0.7" stroke-linecap="round" stroke-linejoin="round"/>
<path d="M8.27725 6.96782C7.74704 7.0314 7.0276 6.88062 6.3988 6.88062" stroke="#2248AA" stroke-width="0.7" stroke-linecap="round" stroke-linejoin="round"/>
<path d="M8.57668 26.7999C8.04648 26.7363 7.32704 26.8871 6.69824 26.8871" stroke="#2248AA" stroke-width="0.7" stroke-linecap="round" stroke-linejoin="round"/>
</svg>
