<svg width="32" height="32" viewBox="0 0 32 32" fill="none" xmlns="http://www.w3.org/2000/svg">
<mask id="mask0" mask-type="alpha" maskUnits="userSpaceOnUse" x="1" y="1" width="30" height="30">
<path d="M17.7674 16C17.7674 16.9507 16.9947 17.7213 16.0414 17.7213C15.0881 17.7213 14.3153 16.9507 14.3153 16C14.3153 15.0493 15.0881 14.2787 16.0414 14.2787C16.9947 14.2787 17.7674 15.0493 17.7674 16Z" fill="#5F5F5F"/>
<path d="M16.2604 24.3511C17.2921 24.3322 17.8984 23.2919 17.6349 22.297C17.3761 21.3199 16.3568 20.7678 15.3554 20.6122C14.4213 20.4672 13.5386 20.0443 12.8418 19.4024C12.1558 18.7705 11.2176 18.3281 10.3257 18.6042C9.24291 18.9393 8.6749 20.1517 9.36698 21.0472C10.9966 23.1558 13.5949 24.4001 16.2604 24.3511Z" fill="#5F5F5F"/>
<path d="M9.77931 15.2623C8.65597 15.2623 7.75657 14.2872 8.12862 13.2302C9.27469 9.974 12.3846 7.63934 16.0413 7.63934C20.6715 7.63934 24.425 11.3825 24.425 16C24.425 17.7808 23.8667 19.4316 22.9152 20.7877C22.3079 21.6532 21.0691 21.5585 20.3892 20.7487C19.7528 19.9905 19.8645 18.8765 20.2854 17.9813C20.5683 17.3798 20.7263 16.7083 20.7263 16C20.7263 13.4197 18.6288 11.3279 16.0413 11.3279C14.2804 11.3279 12.7464 12.2967 11.946 13.729C11.4876 14.5494 10.721 15.2623 9.77931 15.2623Z" fill="#5F5F5F"/>
<path d="M16.0414 31C23.7025 31 30.1472 25.0467 30.9894 17.6336C31.1104 16.5686 30.1753 15.734 29.1042 15.8214C28.1331 15.9007 27.4036 16.7164 27.2553 17.6768C26.4224 23.0688 21.6549 27.3115 16.0414 27.3115C15.3261 27.3115 14.6263 27.2455 13.9478 27.1192C12.9977 26.9424 11.9939 27.3526 11.5925 28.2294C11.142 29.2133 11.6217 30.383 12.679 30.6238C13.7601 30.87 14.8855 31 16.0414 31Z" fill="#5F5F5F"/>
<path d="M28.251 7.23778C28.867 8.08987 28.4923 9.25262 27.5489 9.71982C26.6591 10.1605 25.5908 9.814 24.9785 9.03386C22.9023 6.38863 19.671 4.68852 16.0414 4.68852C9.77699 4.68852 4.6987 9.75284 4.6987 16C4.6987 18.4539 5.48223 20.7252 6.81341 22.5789C7.39964 23.3952 7.4226 24.5345 6.72448 25.2579C6.00492 26.0036 4.80148 26.0214 4.16413 25.2047C2.18107 22.6636 1 19.4694 1 16C1 7.71573 7.73425 1 16.0414 1C21.0686 1 25.5198 3.45952 28.251 7.23778Z" fill="#5F5F5F"/>
</mask>
<g mask="url(#mask0)">
<ellipse cx="16.041" cy="15.9995" rx="14.5482" ry="14.5082" stroke="#2248AA" stroke-width="0.488574"/>
<ellipse cx="16.0415" cy="16.0001" rx="13.0687" ry="13.0328" stroke="#2248AA" stroke-width="0.488574"/>
<ellipse cx="16.0415" cy="16" rx="11.5893" ry="11.5574" stroke="#2248AA" stroke-width="0.488574"/>
<ellipse cx="16.0414" cy="16" rx="11.0961" ry="11.0656" stroke="#2248AA" stroke-width="0.488574"/>
<ellipse cx="16.0414" cy="16.0001" rx="10.3564" ry="10.3279" stroke="#2248AA" stroke-width="0.488574"/>
<ellipse cx="16.0414" cy="16.0001" rx="9.61662" ry="9.59017" stroke="#2248AA" stroke-width="0.488574"/>
<ellipse cx="16.0414" cy="16" rx="8.87688" ry="8.85246" stroke="#2248AA" stroke-width="0.488574"/>
<ellipse cx="16.0414" cy="16.0001" rx="7.89056" ry="7.86885" stroke="#2248AA" stroke-width="0.488574"/>
<ellipse cx="16.0415" cy="15.9999" rx="6.41108" ry="6.39344" stroke="#2248AA" stroke-width="0.488574"/>
<ellipse cx="16.0415" cy="16.0001" rx="4.9316" ry="4.91803" stroke="#2248AA" stroke-width="0.488574"/>
<ellipse cx="16.0413" cy="16" rx="4.43844" ry="4.42623" stroke="#2248AA" stroke-width="0.488574"/>
<ellipse cx="16.0414" cy="15.9999" rx="3.6987" ry="3.68852" stroke="#2248AA" stroke-width="0.488574"/>
<ellipse cx="16.0414" cy="15.9999" rx="2.95896" ry="2.95082" stroke="#2248AA" stroke-width="0.488574"/>
<ellipse cx="16.0414" cy="16" rx="2.21922" ry="2.21311" stroke="#2248AA" stroke-width="0.488574"/>
<ellipse cx="16.0415" cy="15.9999" rx="0.73974" ry="0.737705" stroke="#2248AA" stroke-width="0.488574"/>
</g>
</svg>
