<svg width="32" height="32" viewBox="0 0 32 32" fill="none" xmlns="http://www.w3.org/2000/svg">
<path d="M6.54871 16.3997C5.28755 16.1443 3.7814 16.3997 2.45207 16.3997C2.26219 16.3997 0.66568 16.4417 1.06338 16.1115C5.64197 12.3096 10.491 7.3864 14.742 2.92268C15.8886 1.71875 16.7781 1.62842 18.0108 3.03596C21.3393 6.23482 28.366 12.8885 30.2954 14.9583C30.585 15.2691 31.158 15.7699 30.9588 15.9353C30.6102 16.2248 29.6991 16.1085 29.3522 16.0873C28.7508 16.0506 26.6904 15.9353 26.1471 15.9353" stroke="#2248AA" stroke-width="0.7" stroke-linecap="round" stroke-linejoin="round"/>
<path d="M10.8541 6.45403C10.8541 5.74979 10.6712 4.63195 10.8618 3.93959C10.9555 3.59933 7.08692 3.81585 6.66964 3.9396C6.17664 4.08583 6.79299 7.13043 6.96576 10.8903" stroke="#2248AA" stroke-width="0.7" stroke-linecap="round" stroke-linejoin="round"/>
<path d="M6.54899 16.2556C6.54891 19.926 6.29979 30.1251 6.91615 30.1251C10.507 30.1251 24.9637 30.1251 26.024 30.1251C26.6874 30.1251 25.9007 20.5658 26.2684 16.0394" stroke="#2248AA" stroke-width="0.7" stroke-linecap="round" stroke-linejoin="round"/>
<path d="M7.53223 14.296C9.01154 12.6326 15.0521 5.59509 16.4081 5.59509C17.7641 5.59509 23.3116 11.7369 25.6538 14.0401" stroke="#2248AA" stroke-width="0.7" stroke-linecap="round" stroke-linejoin="round"/>
<path d="M16.4083 12.6521C19.2627 14.8966 23.1805 20.1502 21.099 24.0391C19.9808 26.1283 16.3271 27.7559 14.2558 26.5615C12.0629 25.297 11.1068 23.066 11.7176 20.3715C12.3224 17.7035 13.9312 13.4064 16.4083 12.2487" stroke="#2248AA" stroke-width="0.7" stroke-linecap="round" stroke-linejoin="round"/>
<path d="M19.0469 17.4087C20.763 19.8578 20.2298 24.8769 18.7692 24.1833C17.8875 23.7646 19.1204 19.798 19.0469 18.1346" stroke="#2248AA" stroke-width="0.7" stroke-linecap="round" stroke-linejoin="round"/>
<path d="M15.0523 13.4003C14.3262 15.2178 13.0759 21.2284 13.9427 23.2528C14.6563 24.9193 17.1352 26.0678 18.8739 26.0678" stroke="#2248AA" stroke-width="0.7" stroke-linecap="round" stroke-linejoin="round"/>
<path d="M8.14851 21.5894C8.14851 21.5894 7.65562 28.033 8.14851 28.3709C8.76511 28.7938 12.4632 28.3709 12.4632 28.3709" stroke="#2248AA" stroke-width="0.7" stroke-linecap="round" stroke-linejoin="round"/>
<path d="M24.3663 17.3669C24.3663 17.3669 25.5993 27.7773 24.3663 28.3233C22.8238 29.0065 13.5729 28.499 13.5729 28.499" stroke="#2248AA" stroke-width="0.7" stroke-linecap="round" stroke-linejoin="round"/>
</svg>
