<svg width="32" height="32" viewBox="0 0 32 32" fill="none" xmlns="http://www.w3.org/2000/svg">
<path d="M15.0394 22.8244C13.9227 20.125 13.7156 12.0279 10.5182 10.5197C9.21379 9.90444 9.2087 13.5757 12.156 13.5757C14.7299 13.5757 20.9329 14.2075 22.3055 11.9414C22.853 11.0376 22.9552 10.1113 21.7494 9.60574C17.8774 7.98231 17.3162 20.3369 17.0295 22.6357" stroke="#2248AA" stroke-width="0.7" stroke-linecap="round" stroke-linejoin="round"/>
<path d="M17.7842 3.47876C18.6036 3.49761 19.8617 3.73797 20.4933 4.27425C20.7276 4.47316 21.0939 4.98682 20.6907 5.18821C20.087 5.48971 18.3075 4.59709 18.2686 3.93574" stroke="#2248AA" stroke-width="0.7" stroke-linecap="round" stroke-linejoin="round"/>
<path d="M22.333 5.59766C23.3364 6.13855 24.1964 6.94989 24.7698 8.16689C25.1761 9.02931 25.4965 11.3684 25.1761 11.6706C24.1964 12.7645 24.7248 8.4391 22.9064 6.54422" stroke="#2248AA" stroke-width="0.7" stroke-linecap="round" stroke-linejoin="round"/>
<path d="M12.6177 3.32642C4.55922 6.13847 6.566 13.9814 8.41942 16.8836" stroke="#2248AA" stroke-width="0.7" stroke-linecap="round" stroke-linejoin="round"/>
<path d="M9.71924 22.9061C7.56906 18.9847 4.68319 15.8887 5.02828 10.0288C5.40725 3.59367 11.0126 1 16.8861 1C22.8279 1 27.2581 7.62962 26.9883 12.466C26.7831 16.145 23.3365 21.4187 22.1442 23.679" stroke="#2248AA" stroke-width="0.7" stroke-linecap="round" stroke-linejoin="round"/>
<path d="M9.38794 22.5197C12.1724 23.0322 15.0754 22.672 17.9459 22.672C18.9711 22.672 21.3944 22.6824 21.4731 23.7174C21.4731 24.8459 20.1126 24.8046 19.3991 24.8046C18.3333 24.8046 11.624 23.3923 11.8693 25.4753C11.9967 26.5571 19.6096 25.1886 19.6096 26.5571C19.6096 27.3949 15.0139 27.4852 13.9091 27.5465C13.237 27.5838 13.4093 28.1948 13.9899 28.3166C14.7077 28.467 17.0352 28.2952 17.4974 28.7312C18.0747 29.2759 17.0322 30.8609 16.3312 30.8977C13.3027 30.8977 16.4001 28.4503 16.8156 30.3645" stroke="#2248AA" stroke-width="0.7" stroke-linecap="round" stroke-linejoin="round"/>
<path d="M9.87231 23.129C11.054 25.0019 12.0126 26.422 13.3027 28.3151C13.7937 29.0356 14.5857 30.406 15.3623 30.8639C16.1566 31.3322 17.2714 30.5014 17.6229 29.7553C18.7496 28.3151 20.7563 25.7459 22.1897 23.5823" stroke="#2248AA" stroke-width="0.7" stroke-linecap="round" stroke-linejoin="round"/>
</svg>
