<svg width="32" height="22" viewBox="0 0 32 22" fill="none" xmlns="http://www.w3.org/2000/svg">
<path d="M11.3621 9.30234C10.4138 10.7959 10.6914 13.3981 13.1429 10.8239C15.6457 8.19599 9.46615 4.8188 8.51726 9.30234C7.63242 13.4833 10.7794 13.4574 13.7328 13.2851C19.7652 12.9332 15.4431 0.661093 7.09486 5.8174C0.67775 9.78096 7.92824 17.6342 14.2069 17.2679C25.1785 16.6279 13.7328 -10.6115 2.3535 6.81317C-1.22289 12.2893 2.68636 21 9.41547 21C18.4241 21 26.142 14 17.0909 2C15.0795 -0.666667 26.1419 6.81317 30.6675 10.8239C32.6787 12.6065 25.1363 14.5 19.6051 18.5" stroke="#2248AA" stroke-linecap="round" stroke-linejoin="round"/>
</svg>
