<svg width="62" height="62" viewBox="0 0 62 62" fill="none" xmlns="http://www.w3.org/2000/svg">
<mask id="mask0" mask-type="alpha" maskUnits="userSpaceOnUse" x="0" y="0" width="62" height="62">
<path d="M34.6527 31C34.6527 32.9647 33.0556 34.5574 31.0855 34.5574C29.1154 34.5574 27.5183 32.9647 27.5183 31C27.5183 29.0353 29.1154 27.4426 31.0855 27.4426C33.0556 27.4426 34.6527 29.0353 34.6527 31Z" fill="#5F5F5F"/>
<path d="M31.5383 48.259C33.6704 48.2198 34.9234 46.0699 34.3788 44.0139C33.8439 41.9945 31.7374 40.8534 29.6679 40.532C27.7374 40.2322 25.9132 39.3582 24.4731 38.0317C23.0553 36.7257 21.1164 35.8115 19.2731 36.382C17.0354 37.0745 15.8615 39.5802 17.2918 41.4308C20.6597 45.7886 26.0294 48.3602 31.5383 48.259Z" fill="#5F5F5F"/>
<path d="M18.1439 29.4754C15.8223 29.4754 13.9636 27.4602 14.7325 25.2757C17.101 18.5463 23.5282 13.7213 31.0854 13.7213C40.6544 13.7213 48.4117 21.4572 48.4117 31C48.4117 34.6803 47.2579 38.0919 45.2913 40.8947C44.0364 42.6832 41.4762 42.4876 40.0711 40.8139C38.7557 39.2471 38.9866 36.9448 39.8566 35.0946C40.4411 33.8515 40.7677 32.4638 40.7677 31C40.7677 25.6673 36.4328 21.3443 31.0854 21.3443C27.4461 21.3443 24.2758 23.3465 22.6217 26.3067C21.6743 28.0021 20.0902 29.4754 18.1439 29.4754Z" fill="#5F5F5F"/>
<path d="M31.0855 62C46.9185 62 60.2375 49.6964 61.9781 34.376C62.2282 32.1751 60.2956 30.4502 58.082 30.631C56.075 30.7948 54.5675 32.4806 54.2609 34.4653C52.5395 45.6088 42.6867 54.377 31.0855 54.377C29.6073 54.377 28.161 54.2406 26.7587 53.9796C24.7952 53.6143 22.7208 54.4621 21.8912 56.2741C20.9602 58.3074 21.9516 60.725 24.1367 61.2225C26.3709 61.7313 28.6967 62 31.0855 62Z" fill="#5F5F5F"/>
<path d="M56.3188 12.8914C57.5918 14.6524 56.8174 17.0554 54.8677 18.021C53.0289 18.9316 50.821 18.2156 49.5556 16.6033C45.2649 11.1365 38.5866 7.62295 31.0855 7.62295C18.1391 7.62295 7.64398 18.0892 7.64398 31C7.64398 36.0713 9.26328 40.7655 12.0144 44.5964C13.2259 46.2834 13.2734 48.6379 11.8306 50.1331C10.3435 51.6742 7.8564 51.7109 6.5392 50.0231C2.44089 44.7715 0 38.17 0 31C0 13.8792 13.9175 0 31.0855 0C41.4751 0 50.6743 5.08302 56.3188 12.8914Z" fill="#5F5F5F"/>
</mask>
<g mask="url(#mask0)">
<ellipse cx="31.0856" cy="31" rx="30.0663" ry="29.9836" stroke="#2248AA" stroke-width="1.02579"/>
<ellipse cx="31.0856" cy="30.9999" rx="27.0087" ry="26.9344" stroke="#2248AA" stroke-width="1.02579"/>
<ellipse cx="31.0857" cy="31" rx="23.9511" ry="23.8852" stroke="#2248AA" stroke-width="1.02579"/>
<ellipse cx="31.0855" cy="31" rx="22.9319" ry="22.8689" stroke="#2248AA" stroke-width="1.02579"/>
<ellipse cx="31.0855" cy="31" rx="21.4031" ry="21.3443" stroke="#2248AA" stroke-width="1.02579"/>
<ellipse cx="31.0855" cy="31.0001" rx="19.8743" ry="19.8197" stroke="#2248AA" stroke-width="1.02579"/>
<ellipse cx="31.0855" cy="30.9999" rx="18.3455" ry="18.2951" stroke="#2248AA" stroke-width="1.02579"/>
<ellipse cx="31.0857" cy="30.9998" rx="16.3072" ry="16.2623" stroke="#2248AA" stroke-width="1.02579"/>
<ellipse cx="31.0857" cy="31" rx="13.2496" ry="13.2131" stroke="#2248AA" stroke-width="1.02579"/>
<ellipse cx="31.0858" cy="30.9999" rx="10.192" ry="10.1639" stroke="#2248AA" stroke-width="1.02579"/>
<ellipse cx="31.0854" cy="31.0001" rx="9.17277" ry="9.14754" stroke="#2248AA" stroke-width="1.02579"/>
<ellipse cx="31.0854" cy="30.9999" rx="7.64398" ry="7.62295" stroke="#2248AA" stroke-width="1.02579"/>
<ellipse cx="31.0854" cy="31" rx="6.11518" ry="6.09836" stroke="#2248AA" stroke-width="1.02579"/>
<ellipse cx="31.0854" cy="31" rx="4.58639" ry="4.57377" stroke="#2248AA" stroke-width="1.02579"/>
<ellipse cx="31.0857" cy="30.9999" rx="1.5288" ry="1.52459" stroke="#2248AA" stroke-width="1.02579"/>
</g>
</svg>
