<svg width="32" height="32" viewBox="0 0 32 32" fill="none" xmlns="http://www.w3.org/2000/svg">
<path d="M13.2172 26.2793C16.7124 26.9086 20.2264 26.2331 23.1977 24.5986C26.9268 22.5473 29 17.0544 29 13.1082C29 5.7773 23.4689 1 14.6553 1C9.06812 1 3 7.63315 3 13.0355C3 19.5084 6.18398 25.0131 13.2172 26.2793Z" stroke="#2248AA" stroke-width="0.7" stroke-linecap="round" stroke-linejoin="round"/>
<path d="M6.23191 8.23572C4.87568 10.942 4.32997 14.3463 6.11766 17.6898C8.32616 21.8204 11.7592 24.5259 16.6613 24.5259" stroke="#2248AA" stroke-width="0.7" stroke-linecap="round" stroke-linejoin="round"/>
<path d="M12.1074 2.85411C17.9154 1.00001 25.2962 3.87181 26.7885 9.04373C27.8698 12.791 27.5989 19.0906 24.2261 21.7624" stroke="#2248AA" stroke-width="0.7" stroke-linecap="round" stroke-linejoin="round"/>
<path d="M20.48 25.835C21.3857 26.9829 22.2871 28.1044 23.1893 29.253C23.9633 30.2384 24.145 31.2747 25.6947 30.9337C26.6443 30.7248 28.0861 29.6141 28.0861 28.5018C28.0861 26.3167 24.3207 28.8803 24.6958 30.1803C24.9938 31.2133 27.8621 28.9502 27.8246 27.9844C27.7913 27.1259 26.6693 26.0787 26.0619 25.5441C25.5558 25.0987 25.0676 24.5925 24.5195 24.1704" stroke="#2248AA" stroke-width="0.7" stroke-linecap="round" stroke-linejoin="round"/>
<path d="M24.0056 25.2532C24.3902 25.498 25.9292 26.8916 26.1304 27.3398" stroke="#2248AA" stroke-width="0.7" stroke-linecap="round" stroke-linejoin="round"/>
<path d="M20.4801 5.47211C21.3745 5.32091 22.2202 6.03082 21.5737 6.85386C21.1851 7.34847 20.0891 7.69339 19.9007 6.85386C19.7728 6.28397 19.9765 5.763 20.627 5.763" stroke="#2248AA" stroke-width="0.7" stroke-linecap="round" stroke-linejoin="round"/>
<path d="M22.3897 9.39925C22.0933 8.89785 21.5314 7.50842 22.6101 7.50842C23.2381 7.50842 23.7331 7.75575 24.1851 8.20334C25.095 9.10434 26.0048 10.7248 25.6132 12.082C25.5472 12.3109 24.8726 12.1191 24.74 12.0496C23.7115 11.5105 23.5113 9.94835 22.4713 9.26188" stroke="#2248AA" stroke-width="0.7" stroke-linecap="round" stroke-linejoin="round"/>
<path d="M15.7796 4.89038C17.9008 8.47851 21.2146 12.0964 21.2146 16.4535C21.2146 18.5372 18.8279 21.1421 16.3504 21.1421C8.78725 21.1421 10.2216 14.1382 11.8135 11.0073C12.5688 9.52167 14.4676 6.71965 15.4376 5.51907" stroke="#2248AA" stroke-width="0.7" stroke-linecap="round" stroke-linejoin="round"/>
<path d="M17.6894 10.1265C19.0491 11.9036 20.0397 13.5479 20.0397 15.8717C20.0397 16.7961 19.1271 20.3577 17.5752 18.821C17.0505 18.3015 19.2194 14.5572 18.1762 10.9419" stroke="#2248AA" stroke-width="0.7" stroke-linecap="round" stroke-linejoin="round"/>
<path d="M14.1637 7.07214C13.8251 8.79062 13.1354 10.2055 13.1354 12.0174C13.1354 13.9071 13.0969 15.4587 13.8699 17.1808C14.5796 18.7619 16.5028 19.9557 17.9152 20.7548" stroke="#2248AA" stroke-width="0.7" stroke-linecap="round" stroke-linejoin="round"/>
</svg>
